<?xml version="1.0" standalone="no"?>
<!DOCTYPE svg PUBLIC "-//W3C//DTD SVG 20010904//EN"
 "http://www.w3.org/TR/2001/REC-SVG-20010904/DTD/svg10.dtd">
<svg version="1.0" xmlns="http://www.w3.org/2000/svg"
 width="16" height="15" viewBox="480 200 780 510"
 preserveAspectRatio="xMidYMid meet">

<g transform="translate(0.000000,1024.000000) scale(0.100000,-0.100000)"
fill="#4a7c59" stroke="none">
<path d="M10267 9170 c-3 -8 -15 -85 -27 -170 -73 -518 -126 -619 -370 -698
-76 -25 -275 -65 -410 -83 -112 -15 -108 -17 115 -50 430 -62 533 -131 601
-397 25 -99 68 -334 80 -439 3 -35 10 -61 14 -58 4 2 10 35 14 72 19 188 81
470 124 562 69 148 216 212 621 271 80 11 146 22 147 23 2 2 -76 15 -172 31
-468 75 -567 134 -634 378 -23 88 -53 254 -79 438 -10 74 -21 128 -24 120z"/>
<path d="M9620 7648 c-23 -84 -96 -342 -162 -573 -476 -1669 -494 -1733 -485
-1741 3 -4 116 -2 249 5 234 11 616 15 607 7 -2 -2 -49 -9 -104 -15 -1089
-123 -1970 -369 -2740 -765 -681 -350 -1222 -751 -1781 -1317 -179 -182 -434
-465 -434 -481 0 -5 249 -8 554 -8 l554 0 27 46 c110 188 352 485 541 664 70
66 91 80 117 80 34 0 217 -27 222 -32 2 -2 -35 -48 -82 -103 -145 -171 -342
-457 -419 -607 l-24 -48 573 0 574 0 52 158 c143 436 325 737 635 1048 142
142 279 251 451 361 135 86 155 97 155 84 0 -6 -13 -59 -29 -118 -16 -59 -66
-247 -111 -418 -45 -170 -110 -416 -145 -545 -86 -317 -145 -546 -145 -559 0
-8 493 -11 1778 -9 l1777 3 80 23 c288 81 531 289 715 614 53 94 125 250 145
316 l6 22 -1495 0 c-823 0 -1496 3 -1496 6 0 4 16 68 36 143 86 327 159 607
235 901 45 173 86 320 93 326 21 22 507 119 746 149 69 9 207 25 308 35 101
10 185 20 188 22 13 13 -578 38 -904 38 l-284 0 8 33 c12 57 252 956 424 1587
9 36 50 182 89 325 40 143 87 313 105 378 l33 118 -121 -3 -120 -3 -117 -295
c-128 -326 -320 -803 -326 -809 -7 -10 -13 13 -57 229 -54 262 -177 849 -182
868 -2 9 -39 12 -138 12 l-134 0 -42 -152z m-341 -2562 c-2 -2 -51 -22 -109
-44 -58 -22 -163 -66 -235 -97 -71 -32 -150 -66 -175 -77 -25 -10 -167 -81
-317 -156 l-272 -136 -75 24 c-42 13 -76 26 -76 30 0 7 187 97 340 163 270
116 473 185 755 257 150 39 172 44 164 36z m-1543 -686 c32 -11 65 -22 73 -25
8 -3 -43 -44 -121 -98 -184 -127 -379 -277 -516 -395 l-63 -55 -92 23 c-51 12
-98 25 -106 30 -16 8 149 144 334 275 125 89 404 265 421 265 6 0 37 -9 70
-20z"/>
<path d="M5801 7215 c-268 -59 -497 -221 -662 -470 -80 -120 -209 -417 -209
-481 0 -12 119 -14 806 -14 762 0 805 -1 800 -17 -3 -10 -60 -227 -126 -483
-67 -256 -153 -586 -191 -735 -125 -480 -179 -690 -179 -702 0 -7 35 10 78 36
339 210 749 414 1101 547 63 24 118 47 121 51 4 5 28 89 53 188 26 99 83 317
127 485 44 168 99 378 123 467 l42 163 604 2 604 3 94 340 c51 187 111 406
132 488 l40 147 -1647 -1 c-1364 0 -1658 -3 -1711 -14z"/>
</g>
</svg>
