<?xml version="1.0" standalone="no"?>
<!DOCTYPE svg PUBLIC "-//W3C//DTD SVG 20010904//EN"
 "http://www.w3.org/TR/2001/REC-SVG-20010904/DTD/svg10.dtd">
<svg version="1.0" xmlns="http://www.w3.org/2000/svg"
 width="1536.000000pt" height="1024.000000pt" viewBox="0 0 1536.000000 1024.000000"
 preserveAspectRatio="xMidYMid meet">

<g transform="translate(0.000000,1024.000000) scale(0.100000,-0.100000)"
fill="#4a7c59" stroke="none">
<path d="M10267 9170 c-3 -8 -15 -85 -27 -170 -73 -518 -126 -619 -370 -698
-76 -25 -275 -65 -410 -83 -112 -15 -108 -17 115 -50 430 -62 533 -131 601
-397 25 -99 68 -334 80 -439 3 -35 10 -61 14 -58 4 2 10 35 14 72 19 188 81
470 124 562 69 148 216 212 621 271 80 11 146 22 147 23 2 2 -76 15 -172 31
-468 75 -567 134 -634 378 -23 88 -53 254 -79 438 -10 74 -21 128 -24 120z"/>
<path d="M9620 7648 c-23 -84 -96 -342 -162 -573 -476 -1669 -494 -1733 -485
-1741 3 -4 116 -2 249 5 234 11 616 15 607 7 -2 -2 -49 -9 -104 -15 -1089
-123 -1970 -369 -2740 -765 -681 -350 -1222 -751 -1781 -1317 -179 -182 -434
-465 -434 -481 0 -5 249 -8 554 -8 l554 0 27 46 c110 188 352 485 541 664 70
66 91 80 117 80 34 0 217 -27 222 -32 2 -2 -35 -48 -82 -103 -145 -171 -342
-457 -419 -607 l-24 -48 573 0 574 0 52 158 c143 436 325 737 635 1048 142
142 279 251 451 361 135 86 155 97 155 84 0 -6 -13 -59 -29 -118 -16 -59 -66
-247 -111 -418 -45 -170 -110 -416 -145 -545 -86 -317 -145 -546 -145 -559 0
-8 493 -11 1778 -9 l1777 3 80 23 c288 81 531 289 715 614 53 94 125 250 145
316 l6 22 -1495 0 c-823 0 -1496 3 -1496 6 0 4 16 68 36 143 86 327 159 607
235 901 45 173 86 320 93 326 21 22 507 119 746 149 69 9 207 25 308 35 101
10 185 20 188 22 13 13 -578 38 -904 38 l-284 0 8 33 c12 57 252 956 424 1587
9 36 50 182 89 325 40 143 87 313 105 378 l33 118 -121 -3 -120 -3 -117 -295
c-128 -326 -320 -803 -326 -809 -7 -10 -13 13 -57 229 -54 262 -177 849 -182
868 -2 9 -39 12 -138 12 l-134 0 -42 -152z m-341 -2562 c-2 -2 -51 -22 -109
-44 -58 -22 -163 -66 -235 -97 -71 -32 -150 -66 -175 -77 -25 -10 -167 -81
-317 -156 l-272 -136 -75 24 c-42 13 -76 26 -76 30 0 7 187 97 340 163 270
116 473 185 755 257 150 39 172 44 164 36z m-1543 -686 c32 -11 65 -22 73 -25
8 -3 -43 -44 -121 -98 -184 -127 -379 -277 -516 -395 l-63 -55 -92 23 c-51 12
-98 25 -106 30 -16 8 149 144 334 275 125 89 404 265 421 265 6 0 37 -9 70
-20z"/>
<path d="M5801 7215 c-268 -59 -497 -221 -662 -470 -80 -120 -209 -417 -209
-481 0 -12 119 -14 806 -14 762 0 805 -1 800 -17 -3 -10 -60 -227 -126 -483
-67 -256 -153 -586 -191 -735 -125 -480 -179 -690 -179 -702 0 -7 35 10 78 36
339 210 749 414 1101 547 63 24 118 47 121 51 4 5 28 89 53 188 26 99 83 317
127 485 44 168 99 378 123 467 l42 163 604 2 604 3 94 340 c51 187 111 406
132 488 l40 147 -1647 -1 c-1364 0 -1658 -3 -1711 -14z"/>
<path d="M6744 2330 c-93 -19 -173 -75 -219 -154 -73 -128 -48 -317 57 -411
67 -61 119 -80 223 -80 78 0 97 4 147 28 115 57 173 158 173 302 -1 65 -6 91
-26 135 -44 93 -111 148 -214 175 -64 16 -79 17 -141 5z m108 -140 c46 -13
105 -77 114 -125 12 -66 0 -140 -30 -179 -36 -47 -74 -66 -134 -66 -96 0 -162
76 -162 186 0 82 30 140 90 171 48 26 68 28 122 13z"/>
<path d="M12260 2326 c-96 -21 -169 -75 -215 -157 -28 -50 -30 -61 -30 -159 0
-95 3 -110 27 -155 32 -60 87 -115 148 -146 38 -20 61 -23 140 -24 81 0 102 4
145 25 115 57 175 158 175 295 0 173 -97 294 -260 325 -62 12 -59 12 -130 -4z
m128 -141 c53 -23 79 -51 98 -108 29 -87 -2 -195 -69 -236 -44 -27 -119 -28
-167 -2 -67 35 -104 141 -80 227 17 59 44 92 94 115 50 23 76 24 124 4z"/>
<path d="M2978 2322 l-228 -2 0 -65 0 -65 90 0 90 0 0 -250 0 -250 75 0 75 0
0 250 0 250 90 0 90 0 0 65 c0 49 -3 65 -14 65 -8 0 -20 1 -28 3 -7 1 -115 1
-240 -1z"/>
<path d="M5495 2319 c-78 -29 -135 -104 -135 -179 0 -54 33 -115 77 -144 21
-13 79 -37 128 -51 104 -31 131 -51 121 -89 -16 -66 -147 -61 -219 9 l-29 27
-49 -48 -49 -48 27 -28 c15 -16 52 -41 83 -56 48 -24 67 -27 150 -27 86 0 100
3 142 27 58 35 88 82 95 150 11 110 -37 161 -199 212 -81 25 -105 37 -115 56
-36 73 84 104 172 44 20 -13 39 -24 43 -24 4 0 27 19 50 43 l42 43 -27 26
c-51 48 -92 62 -188 65 -49 1 -103 -2 -120 -8z"/>
<path d="M7903 2323 l-123 -4 0 -64 0 -65 90 0 90 0 0 -250 0 -250 80 0 80 0
0 250 0 250 90 0 90 0 0 65 0 65 -79 0 c-43 0 -105 2 -137 3 -32 2 -114 2
-181 0z"/>
<path d="M8538 2323 l-158 -4 0 -314 0 -315 220 0 220 0 0 65 0 65 -145 0
-146 0 3 63 3 62 128 3 128 3 -3 62 -3 62 -125 0 -125 0 -3 58 -3 57 146 0
146 0 -3 68 -3 67 -60 0 c-33 1 -131 0 -217 -2z"/>
<path d="M9198 2323 l-58 -4 0 -314 0 -315 205 0 205 0 0 65 0 65 -130 0 -130
0 -2 252 c-3 216 -5 253 -18 254 -8 0 -41 -1 -72 -3z"/>
<path d="M10427 2316 c-134 -50 -215 -179 -205 -330 13 -190 153 -317 337
-304 102 8 181 48 232 119 l19 26 -60 37 -60 37 -35 -35 c-80 -80 -216 -53
-261 51 -20 47 -17 140 6 190 20 46 64 79 118 89 43 8 115 -19 142 -54 l21
-26 55 30 c31 16 58 35 61 42 7 18 -62 88 -112 115 -51 27 -201 34 -258 13z"/>
<path d="M3350 2005 l0 -315 75 0 75 0 0 105 0 105 39 0 c39 0 39 0 101 -105
l62 -105 85 0 85 0 -28 48 c-15 26 -47 78 -70 116 l-43 68 42 32 c55 41 79 92
80 165 0 83 -31 136 -102 173 -52 28 -56 28 -227 28 l-174 0 0 -315z m329 159
c26 -33 27 -75 2 -105 -17 -21 -30 -24 -100 -27 l-81 -4 0 81 0 81 79 0 c74 0
81 -2 100 -26z"/>
<path d="M4065 2014 c-66 -168 -122 -310 -123 -315 -3 -6 29 -9 79 -7 l83 3
20 58 21 57 126 0 127 0 22 -60 22 -60 79 0 c44 0 79 2 79 5 0 6 -145 379
-203 523 l-41 102 -86 0 -85 0 -120 -306z m247 31 l37 -105 -79 0 -79 0 37
105 c20 58 39 105 42 105 3 0 22 -47 42 -105z"/>
<path d="M4682 2057 c-1 -144 0 -286 4 -314 l5 -53 75 0 74 0 0 187 c0 128 3
184 10 177 6 -6 66 -89 133 -185 l122 -174 78 -3 77 -3 0 316 0 315 -75 0 -75
0 0 -187 -1 -188 -25 30 c-13 17 -74 101 -135 188 l-110 157 -77 0 -77 0 -3
-263z"/>
<path d="M5930 2005 l0 -315 75 0 75 0 0 99 0 98 90 6 c105 7 185 37 217 83
61 85 51 217 -20 285 -52 50 -90 59 -269 59 l-168 0 0 -315z m318 165 c28 -27
30 -88 3 -121 -16 -20 -30 -24 -95 -27 l-76 -4 0 86 0 86 73 0 c60 0 77 -4 95
-20z"/>
<path d="M7220 2005 l0 -315 75 0 75 0 0 106 0 105 42 -3 c42 -3 42 -3 103
-105 l60 -102 83 -1 c45 0 82 3 82 6 0 3 -30 56 -66 116 l-67 111 24 18 c13
10 27 19 31 19 4 0 19 19 33 43 66 113 31 242 -79 293 -47 22 -63 24 -223 24
l-173 0 0 -315z m330 165 c13 -13 20 -33 20 -59 0 -60 -32 -81 -126 -81 l-74
0 0 80 0 80 80 0 c67 0 83 -3 100 -20z"/>
<path d="M9593 2098 c2 -140 9 -238 16 -263 8 -23 32 -58 57 -82 132 -128 403
-79 455 82 8 26 14 120 16 263 l4 222 -80 0 -81 0 0 -210 c0 -229 -5 -255 -55
-278 -38 -18 -106 -15 -131 6 -41 32 -44 53 -44 271 l0 211 -81 0 -81 0 5
-222z"/>
<path d="M10890 2005 l0 -315 225 0 225 0 0 65 0 65 -145 0 -145 0 0 65 0 65
125 0 125 0 0 60 0 60 -125 0 -125 0 0 60 0 60 140 0 140 0 0 65 0 65 -220 0
-220 0 0 -315z"/>
<path d="M11430 2005 l0 -315 75 0 75 0 0 105 0 105 43 0 42 0 60 -105 60
-104 87 -1 86 0 -71 117 c-67 109 -70 117 -52 127 40 22 82 76 95 120 28 102
-13 200 -103 242 -49 22 -63 24 -224 24 l-173 0 0 -315z m330 165 c13 -13 20
-33 20 -59 0 -60 -32 -81 -126 -81 l-74 0 0 80 0 80 80 0 c67 0 83 -3 100 -20z"/>
</g>
</svg>
