<?xml version="1.0" standalone="no"?>
<!DOCTYPE svg PUBLIC "-//W3C//DTD SVG 20010904//EN"
 "http://www.w3.org/TR/2001/REC-SVG-20010904/DTD/svg10.dtd">
<svg version="1.0" xmlns="http://www.w3.org/2000/svg"
 width="1536.000000pt" height="393.000000pt" viewBox="0 0 1536.000000 393.000000"
 preserveAspectRatio="xMidYMid meet">

<g transform="translate(0.000000,393.000000) scale(0.100000,-0.100000)"
fill="#4a7c59" stroke="none">
<path d="M150 2070 c0 -1625 1 -1670 19 -1670 15 0 20 10 25 48 3 27 6 778 6
1670 l-1 1622 -24 0 -25 0 0 -1670z"/>
<path d="M9490 3180 c-229 -29 -414 -185 -483 -405 -16 -53 -21 -95 -21 -175
0 -166 52 -300 162 -413 213 -219 606 -222 823 -6 65 65 109 137 140 234 30
91 33 259 5 350 -55 184 -187 329 -349 384 -53 18 -80 23 -192 35 -16 2 -55 0
-85 -4z m215 -240 c66 -32 131 -99 163 -168 24 -52 27 -68 27 -172 0 -105 -3
-120 -28 -172 -36 -74 -96 -134 -165 -166 -48 -23 -70 -27 -142 -27 -103 1
-156 22 -228 89 -159 149 -144 462 29 582 99 69 243 83 344 34z"/>
<path d="M1308 3165 c-113 -31 -196 -91 -243 -176 -28 -50 -30 -62 -30 -154 0
-84 4 -107 22 -140 50 -93 131 -140 331 -192 214 -55 252 -79 252 -159 0 -35
-6 -47 -35 -73 -48 -42 -102 -54 -210 -48 -97 5 -187 33 -265 82 -23 14 -44
25 -46 23 -2 -2 -22 -44 -44 -93 -46 -98 -49 -88 40 -134 147 -76 346 -101
497 -63 130 33 217 94 265 185 31 57 33 221 4 280 -45 90 -119 133 -324 187
-151 39 -217 65 -241 94 -23 28 -24 88 -2 123 29 46 74 66 163 71 88 5 156 -8
247 -50 36 -15 68 -25 72 -21 4 5 23 45 43 90 38 90 39 86 -31 122 -109 55
-348 79 -465 46z"/>
<path d="M4343 3161 c-96 -29 -162 -70 -239 -146 -78 -77 -133 -175 -153 -273
-19 -89 -14 -241 10 -318 42 -140 146 -272 265 -336 118 -64 294 -85 433 -53
204 48 369 216 415 422 68 304 -86 596 -365 694 -90 32 -277 37 -366 10z m320
-225 c252 -120 254 -546 3 -669 -160 -78 -357 -20 -441 131 -120 214 -30 488
184 557 69 22 184 14 254 -19z"/>
<path d="M6871 3164 c-215 -58 -371 -236 -409 -467 -14 -88 -14 -106 0 -193
48 -289 275 -484 563 -484 152 0 283 50 382 142 29 28 53 54 53 59 0 4 -34 37
-75 74 l-75 67 -41 -37 c-69 -62 -140 -89 -234 -89 -67 0 -91 5 -142 28 -75
34 -134 94 -171 174 -24 51 -27 69 -27 167 0 100 3 115 28 167 36 74 96 134
165 166 49 23 70 27 147 27 107 0 166 -22 232 -87 l41 -41 76 69 c42 38 76 74
76 80 0 20 -107 109 -165 137 -29 15 -79 34 -111 42 -73 19 -241 19 -313 -1z"/>
<path d="M11003 3165 c-76 -21 -129 -50 -183 -101 -123 -115 -132 -324 -18
-435 54 -53 126 -84 283 -125 152 -39 191 -54 222 -83 45 -42 42 -113 -7 -154
-86 -73 -321 -56 -461 34 -25 16 -48 29 -51 29 -3 0 -24 -41 -48 -91 -48 -104
-52 -92 55 -144 92 -45 170 -65 280 -72 215 -14 390 62 463 201 24 45 27 62
27 146 0 86 -3 100 -27 142 -53 88 -116 124 -308 174 -169 45 -218 63 -245 95
-53 64 -21 150 70 185 35 13 65 16 138 12 79 -4 106 -11 177 -41 63 -27 86
-33 92 -24 4 6 22 47 39 91 l32 78 -24 19 c-13 10 -60 30 -104 45 -68 23 -100
28 -215 31 -97 2 -150 -1 -187 -12z"/>
<path d="M13251 3164 c-246 -66 -406 -273 -419 -539 -4 -82 0 -115 18 -182 51
-189 183 -333 361 -394 138 -47 336 -34 466 31 62 32 163 114 163 134 0 11
-52 64 -122 125 l-27 23 -53 -46 c-68 -59 -130 -81 -233 -81 -103 0 -171 31
-244 111 -69 75 -95 159 -89 282 7 148 67 245 186 304 60 30 75 33 157 33 76
0 99 -4 146 -26 30 -14 72 -43 92 -64 l36 -37 81 73 82 74 -60 56 c-104 98
-219 139 -387 138 -55 0 -124 -7 -154 -15z"/>
<path d="M2058 3070 c-2 -52 -2 -305 0 -562 l3 -468 115 0 114 0 -2 563 -3
562 -112 0 -112 0 -3 -95z"/>
<path d="M2608 3163 l-58 -4 0 -559 0 -560 109 0 109 0 7 83 c4 45 5 195 3
334 -1 139 0 249 4 245 3 -4 73 -124 154 -267 81 -143 152 -263 158 -267 6 -4
31 -8 56 -8 l45 0 48 88 c135 243 263 462 269 462 5 0 8 -151 8 -335 l0 -335
110 0 110 0 0 560 0 560 -99 0 -99 0 -120 -212 c-66 -117 -153 -273 -194 -347
-40 -73 -78 -134 -83 -135 -4 0 -79 125 -165 279 -260 466 -230 419 -275 421
-22 0 -66 -1 -97 -3z"/>
<path d="M5294 3161 c-2 -2 -4 -256 -4 -563 l0 -558 120 0 120 0 2 347 3 346
116 -149 c120 -153 155 -200 319 -417 l95 -126 98 -1 97 0 0 559 0 558 -61 7
c-34 3 -84 6 -110 6 l-49 0 0 -350 c0 -192 -3 -350 -7 -350 -11 0 -505 631
-533 680 -7 12 -30 15 -105 15 -53 0 -98 -2 -101 -4z"/>
<path d="M7688 3163 l-67 -4 3 -537 c2 -295 4 -547 5 -559 1 -22 4 -23 116
-23 l115 0 -2 563 -3 562 -50 1 c-27 0 -80 -1 -117 -3z"/>
<path d="M8428 3162 l-428 -2 0 -100 0 -100 175 0 175 0 0 -460 0 -460 115 0
115 0 0 460 0 460 171 2 171 3 3 55 c2 30 1 76 -2 101 -5 44 -7 46 -37 45 -17
-1 -223 -2 -458 -4z"/>
<path d="M12081 3118 c-95 -219 -185 -429 -264 -618 -52 -124 -118 -278 -145
-342 l-50 -118 121 0 122 0 45 120 45 120 253 -2 254 -3 46 -117 46 -118 119
0 119 0 -6 23 c-3 12 -82 205 -175 427 -93 223 -194 464 -223 535 l-55 130
-116 3 -117 3 -19 -43z m172 -305 c42 -102 127 -322 127 -328 0 -3 -76 -5
-170 -5 -93 0 -170 2 -170 4 0 2 32 82 71 177 39 96 76 189 82 207 6 17 13 32
17 32 4 0 23 -39 43 -87z"/>
</g>
</svg>
